<svg width="1715" height="1064" viewBox="0 0 1715 1064" fill="none" xmlns="http://www.w3.org/2000/svg">
<path d="M1412.18 1.21871C1411.54 1.99071 1410.99 9.67571 1410.81 20.4597L1410.5 38.4167L1407.5 38.9317L1404.5 39.4467L1404.16 41.8657C1403.93 43.4727 1404.56 44.8487 1406.04 45.9637L1408.26 47.6417L1402 65.5377C1398.56 75.3807 1395.07 85.3777 1394.25 87.7527C1393.25 90.6767 1391.95 92.3807 1390.26 93.0267L1387.75 93.9797L1388.32 98.7067L1388.9 103.434L1382.2 122.431L1375.5 141.427L1372.14 143.01C1370.29 143.881 1368.33 145.379 1367.79 146.339C1367.26 147.299 1363.33 159.189 1359.07 172.76C1354.81 186.33 1350.51 199.009 1349.53 200.934C1345.74 208.315 1340.86 214.752 1338.64 215.311L1336.33 215.889L1320.96 247.346C1312.51 264.647 1305.31 278.629 1304.97 278.416C1304.63 278.204 1303.52 275.294 1302.51 271.95C1301.49 268.606 1300.33 266.222 1299.91 266.652C1299.5 267.082 1297.51 271.484 1295.5 276.434C1293.48 281.384 1291.11 285.997 1290.22 286.684C1289.34 287.372 1286.39 287.934 1283.68 287.934C1277.16 287.934 1271.14 289.811 1269.83 292.251C1269.21 293.409 1268.94 298.317 1269.18 304.196L1269.58 314.176L1272.25 316.472C1273.92 317.912 1275.68 318.569 1276.96 318.234L1279 317.701V369.19V420.678L1274.75 421.333C1272.41 421.693 1269.04 422.251 1267.25 422.572L1264 423.157V405.545V387.934H1261.12H1258.25L1257.63 391.05C1257.28 392.764 1255.26 395.914 1253.12 398.05L1249.23 401.934H1243.65H1238.07L1234.53 398.826L1230.99 395.717L1230.37 391.826L1229.74 387.934H1218.5H1207.26L1206.62 391.898C1205.77 397.239 1199.84 403.499 1194.72 404.458C1187.56 405.801 1181 400.784 1178.87 392.349L1177.76 387.934H1163.38H1149V397.299V406.664L1146.93 409.299L1144.85 411.934H1141.43C1139.33 411.934 1137.22 411.156 1136 409.934L1134 407.934V366.934V325.934L1132.75 325.874C1132.06 325.84 1128.35 325.728 1124.5 325.624L1117.51 325.434L1100.14 293.434C1090.58 275.834 1078.02 251.984 1072.22 240.434C1061.18 218.449 1056.91 211.982 1053.41 211.952L1051.31 211.934L1015.44 269.548C995.712 301.236 979.103 327.291 978.534 327.448C977.965 327.605 974.8 328.116 971.5 328.584L965.5 329.434L965.308 337.434C964.855 356.367 962.931 408.16 962.383 416.197L961.786 424.96L939.143 424.308C926.689 423.95 916.351 423.533 916.169 423.381C915.987 423.229 917.104 397.54 918.652 366.294L921.467 309.484L925.734 303.253C930.46 296.35 930.698 295.376 928.443 292.157L926.887 289.934H920.05C915.517 289.934 913.044 289.513 912.709 288.684C910.639 283.561 864.558 176.807 863.434 174.53C862.645 172.933 862 169.873 862 167.729V163.832L865.468 162.383C870.675 160.207 879.682 160.588 888.122 163.34C904.092 168.547 910.134 168.521 918.159 163.21C920.271 161.812 922.051 160.616 922.114 160.551C922.355 160.302 923.486 124.931 923.253 124.932C923.117 124.933 920.321 126.91 917.041 129.325C907.315 136.485 900.641 137.292 887.056 132.952C879.558 130.557 871.858 130.367 866 132.434C860.849 134.251 861.337 134.255 860.624 132.398C860.3 131.553 860.895 129.257 861.947 127.295C864.066 123.34 863.745 121.284 860.605 118.706C857.69 116.314 855.332 116.511 852.455 119.389C849.534 122.309 849.203 127.137 851.75 129.684L853.5 131.434L852.957 155.434L852.414 179.434L824.907 237.434L797.401 295.434L790.97 295.738C783.919 296.071 781 297.758 781 301.5C781 302.741 782.62 307.509 784.6 312.095L788.201 320.434L787.69 350.434C787.409 366.934 786.256 392.809 785.128 407.934C783.999 423.059 782.398 445.282 781.569 457.319C780.741 469.356 779.874 479.393 779.644 479.623C779.414 479.853 754.149 479.328 723.498 478.456L667.771 476.871L664.635 479.278C662.911 480.601 648.681 492.103 633.013 504.837C617.346 517.571 603.846 527.859 603.013 527.699L601.5 527.408L599.867 470.921C598.969 439.853 597.964 406.896 597.633 397.684L597.031 380.934H598.905C599.935 380.934 601.747 380.146 602.93 379.184L605.082 377.434L605.684 370.209L606.286 362.983L605.021 361.459C604.325 360.62 602.29 359.934 600.499 359.934H597.243L596.157 357.184C595.178 354.708 587.51 334.138 567.441 280.161C563.704 270.11 560.328 262.235 559.938 262.661C559.548 263.086 549.441 286.834 537.478 315.434L515.727 367.434L512.614 368.934L509.5 370.434L509.861 377.434C510.309 386.124 511.201 387.934 515.035 387.934H518L518.068 400.684C518.106 407.697 518.486 439.534 518.914 471.434C519.412 508.681 519.342 530.215 518.716 531.616C518.179 532.817 516.561 534.245 515.12 534.791C512.246 535.879 474.225 539.191 473.037 538.457C472.35 538.032 470.661 521.39 470.761 516.04C470.851 511.288 452.15 426.644 450.825 425.804C446.554 423.097 445.507 425.642 432.873 469.434L420.755 511.434L420.128 597.135C419.725 652.15 419.142 683.171 418.5 683.774C417.95 684.29 406.025 694.937 392 707.435L366.5 730.157L366.178 732.606C365.744 735.9 367.632 737.934 371.122 737.934H374V773.995V810.055L323.25 809.245C295.337 808.799 267.821 808.434 262.101 808.434H251.703L252.323 790.544L252.943 772.654L254.472 770.965C255.312 770.037 256 768.093 256 766.647C256 761.511 238.8 685.442 237.242 683.684C235.179 681.358 230.738 681.461 228.544 683.885C227.551 684.983 221.771 703.039 215.34 725.135L203.902 764.434L204.006 799.533C204.064 818.837 203.799 838.074 203.417 842.283L202.724 849.934H101.362H0V954.434V1064L1715 1063.93V959.439V854.944L1621.25 854.689L1527.5 854.434L1527.77 773.434C1527.91 728.884 1528.31 644.171 1528.64 585.184L1529.25 477.934H1527.38L1525.5 477.935L1525.81 418.184C1525.98 385.322 1526.43 348.534 1526.81 336.434L1527.5 314.434L1529.75 314.114L1532 313.795V294.998V276.201L1525 276.568L1517.34 276.968L1511.04 277.298L1504.08 277.662L1493.9 247.048C1488.3 230.21 1483.08 215.155 1482.29 213.592L1480.85 210.75L1475.25 211.092L1469.65 211.434L1465.9 201.934C1463.84 196.709 1461.42 188.609 1460.53 183.934C1459.64 179.259 1457.76 170.709 1456.37 164.934C1454.97 159.159 1453.48 152.734 1453.05 150.655C1452.07 145.992 1449.69 143.245 1445.9 142.411C1444.3 142.061 1443 141.636 1443 141.466C1443 141.296 1437.83 119.925 1431.5 93.9747L1420 46.7917L1421.5 45.2917C1423.75 43.0367 1423.32 40.0367 1420.56 38.7787L1418.12 37.6667L1418.71 20.5197L1419.3 3.3727L1417.58 1.6527C1415.53 -0.391298 1413.64 -0.543288 1412.18 1.21871Z" fill="#453B61"/>
</svg>
